<?xml version="1.0" encoding="UTF-8"?>
<svg version="1.1" viewBox="0 0 81.388 127.69" xml:space="preserve" xmlns="http://www.w3.org/2000/svg"><g transform="translate(-.13651 -.16529)" stroke-linejoin="round"><g fill="none"><g stroke="#a5a5a5"><rect x="1.1365" y="1.1653" width="79.388" height="123.1" rx="1" ry="1" stroke-width="2"/><rect x="22.215" y="4.3826" width="36.246" height="45.299" rx="1" ry="1" stroke-width="2"/><rect x="7.9379" y="44.822" width="8.9663" height="5.9584" rx="1" ry="1" stroke-width="1.5"/><rect x="67.069" y="44.822" width="8.9663" height="5.9584" rx="1" ry="1" stroke-width="1.5"/></g><rect x="67.069" y="27.404" width="8.9663" height="5.9584" rx="1" ry="1" stroke="#000" stroke-width="1.5"/><rect x="67.069" y="10.098" width="8.9663" height="5.9584" rx="1" ry="1" stroke="#000" stroke-width="1.5"/></g><rect x="31.014" y="111.28" width="18.895" height="15.832" rx="1" ry="1" fill="#fefefe" stroke="#a5a5a5" stroke-width="1.5"/><rect x="56.108" y="117.2" width="11.247" height="8.262" rx="0" ry="0" fill="#fff" stroke="#a5a5a5" stroke-width="1.5"/><g fill="none"><rect x="64.58" y="61.028" width="5.285" height="45.446" rx="0" ry="0" stroke="#a5a5a5" stroke-width="1.5"/><rect x="11.314" y="61.028" width="5.285" height="45.446" rx="0" ry="0" stroke="#a5a5a5" stroke-width="1.5"/><rect x="13.299" y="53.53" width="2.8091" height="3.8227" rx="1.3352" ry="1.3883" stroke="#000" stroke-width="1.1"/><rect x="64.443" y="53.53" width="2.8091" height="3.8227" rx="1.3352" ry="1.3883" stroke="#000" stroke-width="1.1"/><circle cx="8.9786" cy="10.346" r="2.7458" stroke="#a5a5a5" stroke-width="1.5"/><circle cx="75.029" cy="120.25" r="2.7458" stroke="#a5a5a5" stroke-width="1.5"/></g><rect x="7.521" y="19.953" width="8.8617" height="3.6856" rx="0" ry="0" fill="#fff" stroke="#a5a5a5" stroke-width="1.5"/></g></svg>
